<?xml version="1.0" standalone="no"?>
<!DOCTYPE svg PUBLIC "-//W3C//DTD SVG 20010904//EN"
 "http://www.w3.org/TR/2001/REC-SVG-20010904/DTD/svg10.dtd">
<svg version="1.0" xmlns="http://www.w3.org/2000/svg"
 width="512.000000pt" height="512.000000pt" viewBox="0 0 512.000000 512.000000"
 preserveAspectRatio="xMidYMid meet">
<metadata>
Created by potrace 1.11, written by Peter Selinger 2001-2013
</metadata>
<g transform="translate(0.000000,512.000000) scale(0.100000,-0.100000)"
fill="#000000" stroke="none">
<path d="M4113 5105 c-41 -18 -214 -189 -238 -234 -20 -39 -22 -92 -5 -136 6
-16 64 -82 128 -147 l116 -119 -240 -240 -240 -240 -129 131 c-127 127 -186
170 -236 170 -81 0 -46 33 -1255 -1176 -763 -762 -1160 -1166 -1169 -1189 -37
-87 -16 -138 111 -265 l103 -105 -86 -85 c-101 -100 -128 -149 -118 -218 6
-48 33 -91 88 -143 l30 -29 -487 -487 c-470 -471 -487 -489 -483 -521 3 -18
10 -39 17 -47 16 -19 65 -28 87 -17 10 6 232 224 495 487 l476 476 48 -46 c56
-54 82 -67 144 -70 63 -4 101 19 201 119 l85 85 95 -95 c52 -53 111 -104 131
-115 44 -23 96 -24 143 -5 36 15 1871 1841 1894 1885 9 17 10 30 2 54 -11 30
-9 33 55 98 l67 68 47 -6 47 -5 112 111 c195 194 193 234 -29 456 l-130 130
240 239 239 240 119 -116 c65 -64 131 -122 147 -128 42 -17 98 -14 137 6 52
27 224 206 238 248 15 46 6 109 -19 144 -11 15 -203 210 -428 433 -335 334
-414 407 -442 413 -49 9 -72 7 -108 -9z"/>
</g>
</svg>
